<svg width="142.85" height="142.85" viewBox="0 0 37.796 37.796" xml:space="preserve" xmlns:xlink="http://www.w3.org/1999/xlink" xmlns="http://www.w3.org/2000/svg"><defs><radialGradient xlink:href="#a" id="b" cx="91.084" cy="112.731" fx="91.084" fy="112.731" r="18.898" gradientUnits="userSpaceOnUse" gradientTransform="matrix(1.56505 -.00786 .00857 1.70802 -66.495 22.48)"/><linearGradient id="a"><stop style="stop-color:#a679a9;stop-opacity:1" offset="0"/><stop style="stop-color:#4b3559;stop-opacity:1" offset="1"/></linearGradient></defs><g transform="translate(-64.514 -195.288)"><circle style="display:inline;fill:url(#b);fill-opacity:1;stroke:none;stroke-width:.66544;stroke-linecap:round;stroke-linejoin:round;stroke-dasharray:none" cx="83.346" cy="214.185" r="17.632"/><circle style="fill:#ed8e8e;fill-opacity:1;stroke:none;stroke-width:.553456;stroke-linecap:round;stroke-linejoin:round;stroke-dasharray:none" cx="75.541" cy="207.785" r="2.292"/><path style="fill:#4b3c60;fill-opacity:1;stroke:none;stroke-width:.25152px;stroke-linecap:butt;stroke-linejoin:miter;stroke-opacity:1" d="m97.821 204.236-3.983 1.824-4.55 10.032-1.643-5.053-6.257 2.37-4.519 6.505-2.793-8.199-5.296-1.173-3.026 4.108a17.632 17.632 0 0 0 17.592 17.168 17.632 17.632 0 0 0 17.632-17.633 17.632 17.632 0 0 0-3.157-9.95z"/><path style="fill:#e9caca;fill-opacity:1;stroke:none;stroke-width:.198362px;stroke-linecap:butt;stroke-linejoin:miter;stroke-opacity:1" d="M95.72 214.152c-3.553 0-2.204 13.215-5.956 13.215-3.332 0-1.958-10.572-5.956-10.572-3.74 0-2.46 7.929-5.955 7.929-3.217 0-3.085-5.286-5.955-5.286-2.568 0-2.53 1.754-4.363 2.404a17.632 17.632 0 0 0 .001.003 17.632 17.632 0 0 0 3.745 5.117 17.632 17.632 0 0 0 .168.168 17.632 17.632 0 0 0 1.407 1.154 17.632 17.632 0 0 0 .672.47 17.632 17.632 0 0 0 1.423.898 17.632 17.632 0 0 0 .002.001 17.632 17.632 0 0 0 2.023.944 17.632 17.632 0 0 0 1.172.381 17.632 17.632 0 0 0 1.522.408 17.632 17.632 0 0 0 1.055.203 17.632 17.632 0 0 0 2.62.23 17.632 17.632 0 0 0 1.922-.11 17.632 17.632 0 0 0 .128-.012 17.632 17.632 0 0 0 1.823-.316 17.632 17.632 0 0 0 .192-.042 17.632 17.632 0 0 0 1.736-.51 17.632 17.632 0 0 0 .22-.077 17.632 17.632 0 0 0 1.648-.697 17.632 17.632 0 0 0 .22-.107 17.632 17.632 0 0 0 1.546-.875 17.632 17.632 0 0 0 .22-.142 17.632 17.632 0 0 0 1.44-1.049 17.632 17.632 0 0 0 .178-.148 17.632 17.632 0 0 0 1.337-1.23 17.632 17.632 0 0 0 .123-.132 17.632 17.632 0 0 0 1.223-1.413 17.632 17.632 0 0 0 .063-.088 17.632 17.632 0 0 0 1.094-1.604c-.523-4.318-.693-9.115-2.739-9.115z"/><circle style="fill:none;fill-opacity:1;stroke:#000;stroke-width:.66544;stroke-linecap:round;stroke-linejoin:round;stroke-dasharray:none" cx="83.346" cy="214.185" r="17.632"/></g></svg>